<svg width="29" height="35" viewBox="0 0 29 35" fill="none" xmlns="http://www.w3.org/2000/svg">
<path fill-rule="evenodd" clip-rule="evenodd" d="M29 14.6559C29 22.3866 16.8924 32.9552 15.5117 34.1345C14.9305 34.6318 14.0725 34.6295 13.4943 34.1286C12.1076 32.9551 0 22.3865 0 14.6557C0 6.56144 6.49175 0 14.4999 0C22.5076 0 29 6.5618 29 14.6559ZM21.091 13.7502C21.091 17.2019 18.14 20.0002 14.5001 20.0002C10.8601 20.0002 7.9092 17.2019 7.9092 13.7502C7.9092 10.2984 10.8601 7.50016 14.5001 7.50016C18.14 7.50016 21.091 10.2984 21.091 13.7502Z" fill="#1FC765"/>
</svg>
