<svg width="217" height="85" viewBox="0 0 217 85" fill="none" xmlns="http://www.w3.org/2000/svg">
<g clip-path="url(#clip0_61_448)">
<path d="M47.7251 83.0356V74.3745H53.3219V83.0356H52.1723V75.2198H48.8722V83.0279L47.7251 83.0356Z" fill="#272727"/>
<path d="M57.3713 74.3745C58.3977 74.3745 59.1616 74.5801 59.6628 74.9911C60.1641 75.4022 60.4104 76.042 60.4019 76.9104C60.4103 77.3109 60.346 77.7096 60.212 78.0871C60.0922 78.4111 59.8969 78.7018 59.6423 78.935C59.3665 79.1757 59.0403 79.3513 58.6877 79.4489C58.2506 79.5735 57.7974 79.6324 57.343 79.6236H56.6271V83.0305H55.48V74.3745H57.3713ZM57.3276 75.2044H56.6271V78.8014H57.2404C57.6283 78.8163 58.0152 78.7516 58.3772 78.6113C58.6585 78.4957 58.8876 78.2809 59.0213 78.0075C59.1705 77.6689 59.2407 77.3007 59.2266 76.9309C59.2266 76.3177 59.0726 75.8784 58.7647 75.6129C58.4567 75.3474 57.9752 75.2112 57.3199 75.2044H57.3276Z" fill="#272727"/>
<path d="M68.1931 78.6935C68.1972 79.2782 68.1369 79.8615 68.0135 80.4329C67.9067 80.9354 67.7149 81.416 67.4464 81.8538C67.1935 82.2567 66.8396 82.5862 66.4199 82.8095C65.9394 83.0404 65.4132 83.1602 64.8802 83.1602C64.3472 83.1602 63.821 83.0404 63.3405 82.8095C62.9208 82.5804 62.5673 82.2468 62.314 81.8409C62.0449 81.4009 61.8539 80.9176 61.7495 80.4124C61.6295 79.8457 61.571 79.2677 61.575 78.6884C61.5513 77.8516 61.6764 77.0173 61.9445 76.2244C62.1492 75.6279 62.5372 75.1117 63.0531 74.7497C63.5998 74.4077 64.236 74.2368 64.8802 74.2589C65.565 74.2251 66.2399 74.4333 66.7869 74.8473C67.2844 75.2655 67.6492 75.82 67.8364 76.4428C68.0724 77.1697 68.1927 77.9292 68.1931 78.6935ZM62.8042 78.6935C62.7888 79.362 62.87 80.0292 63.0454 80.6744C63.1554 81.14 63.3947 81.5648 63.7357 81.9C64.054 82.1742 64.463 82.3199 64.8828 82.3085C65.3075 82.3215 65.7218 82.1759 66.0452 81.9C66.3876 81.5744 66.629 81.1569 66.7407 80.6976C66.9122 80.0456 66.9916 79.3727 66.9768 78.6987C66.9768 77.5099 66.8057 76.6158 66.4635 76.0163C66.3161 75.7347 66.092 75.5005 65.8173 75.341C65.5426 75.1814 65.2284 75.1029 64.911 75.1145C64.4818 75.0999 64.0624 75.2444 63.7331 75.5204C63.3884 75.8455 63.1443 76.2628 63.03 76.7229C62.8594 77.3654 62.7799 78.0288 62.7939 78.6935H62.8042Z" fill="#272727"/>
<path d="M70.0132 74.3745H71.132V79.7058C71.132 79.8163 71.132 79.9319 71.132 80.0526C71.132 80.1734 71.132 80.3096 71.132 80.4432C71.132 80.5768 71.132 80.7386 71.1089 80.9056C71.0858 81.0727 71.0884 81.2602 71.073 81.4658H71.132L74.7709 74.3745H76.2002V83.0356H75.0737V77.5784C75.0737 77.4525 75.0737 77.3215 75.0737 77.1879C75.0737 77.0543 75.0737 76.9155 75.0916 76.7742C75.1096 76.6329 75.1096 76.4839 75.1198 76.3297C75.1301 76.1756 75.1481 76.0189 75.1686 75.8621H75.1096L71.4348 83.0356H70.026L70.0132 74.3745Z" fill="#272727"/>
<path d="M82.5387 76.3581C82.556 76.8667 82.3882 77.3644 82.0665 77.7584C81.7144 78.1547 81.2369 78.4178 80.7141 78.5035V78.56C81.275 78.5846 81.8078 78.8129 82.2128 79.2023C82.5698 79.6109 82.7538 80.1426 82.726 80.6848C82.7378 81.1437 82.6233 81.597 82.395 81.9951C82.1609 82.3768 81.8137 82.6759 81.4019 82.8507C80.88 83.0691 80.3172 83.1725 79.7518 83.1539C79.383 83.1544 79.0148 83.1243 78.6509 83.064C78.3169 83.0132 77.9891 82.9271 77.6732 82.807V81.859C77.8642 81.9562 78.0634 82.0362 78.2686 82.0979C78.4952 82.1676 78.7269 82.22 78.9614 82.2546C79.1873 82.2896 79.4155 82.3076 79.644 82.3086C80.2873 82.3086 80.7637 82.1741 81.0734 81.9052C81.383 81.6363 81.537 81.2175 81.5353 80.6488C81.5566 80.4077 81.5195 80.165 81.427 79.9413C81.3345 79.7177 81.1894 79.5197 81.0041 79.3642C80.6525 79.0918 80.1034 78.9557 79.3618 78.9557H78.5919V78.1027H79.3618C79.7412 78.1131 80.1191 78.0512 80.4755 77.9202C80.7529 77.8181 80.9886 77.6265 81.1452 77.3756C81.3037 77.0957 81.381 76.7772 81.3685 76.4558C81.3838 76.2664 81.357 76.076 81.29 75.8983C81.223 75.7206 81.1175 75.56 80.981 75.428C80.6674 75.1869 80.2773 75.0674 79.8827 75.0915C79.5926 75.0887 79.3046 75.1401 79.0333 75.2431C78.7911 75.3346 78.5676 75.4696 78.3738 75.6413L77.8041 74.9604C78.0061 74.7959 78.2276 74.657 78.4636 74.5468C78.6984 74.4378 78.9458 74.3584 79.2001 74.3104C79.4843 74.2569 79.7731 74.2311 80.0623 74.2333C80.5214 74.2197 80.9779 74.3074 81.3993 74.4902C81.7452 74.6471 82.0371 74.9027 82.2384 75.2251C82.445 75.5661 82.5492 75.9594 82.5387 76.3581Z" fill="#272727"/>
<path d="M84.6752 74.3745H86.9847C87.9034 74.3745 88.5988 74.5458 89.071 74.8884C89.3085 75.0689 89.4973 75.3057 89.6205 75.5775C89.7437 75.8494 89.7974 76.1476 89.7767 76.4454C89.7843 76.7781 89.7259 77.1091 89.6048 77.4191C89.4974 77.6871 89.3202 77.9214 89.0916 78.0974C88.8462 78.2802 88.5598 78.4002 88.2575 78.4468V78.4957C88.6046 78.5518 88.936 78.6805 89.2301 78.8733C89.4804 79.0448 89.6784 79.2822 89.8024 79.5593C89.9336 79.8749 89.9975 80.2145 89.9897 80.5562C89.9997 81.0099 89.8928 81.4586 89.6792 81.8589C89.4711 82.2321 89.1554 82.5339 88.7733 82.7247C88.32 82.9425 87.821 83.0482 87.3183 83.033H84.6752V74.3745ZM85.8223 78.1077H86.9642C87.5373 78.1077 87.9539 77.9758 88.2139 77.712C88.3539 77.5507 88.4604 77.3631 88.5274 77.1603C88.5943 76.9574 88.6204 76.7432 88.604 76.5301C88.6159 76.3426 88.5849 76.1549 88.5133 75.9813C88.4417 75.8076 88.3314 75.6526 88.1908 75.5281C87.8283 75.2702 87.3871 75.1475 86.9437 75.1813H85.8223V78.1077ZM85.8223 78.9119V82.2109H87.1875C87.4062 82.2267 87.6258 82.1975 87.8328 82.125C88.0398 82.0526 88.2298 81.9384 88.391 81.7895C88.6902 81.4315 88.8367 80.9701 88.799 80.5048C88.8096 80.195 88.7369 79.888 88.5886 79.6159C88.45 79.3785 88.2398 79.1914 87.9881 79.0815C87.6921 78.9561 87.3727 78.8956 87.0514 78.9042L85.8223 78.9119Z" fill="#272727"/>
<path d="M97.9012 78.6935C97.9053 79.2782 97.8451 79.8615 97.7216 80.4329C97.6148 80.9354 97.423 81.416 97.1545 81.8538C96.9016 82.2567 96.5477 82.5862 96.128 82.8095C95.6475 83.0404 95.1213 83.1602 94.5883 83.1602C94.0553 83.1602 93.5291 83.0404 93.0486 82.8095C92.629 82.5804 92.2754 82.2468 92.0221 81.8409C91.7538 81.4008 91.5637 80.9175 91.4602 80.4124C91.3393 79.8458 91.28 79.2678 91.2831 78.6884C91.2588 77.8514 91.3849 77.0168 91.6552 76.2244C91.8579 75.6276 92.2453 75.111 92.7612 74.7497C93.3079 74.4077 93.9441 74.2368 94.5883 74.2589C95.2731 74.2251 95.948 74.4333 96.495 74.8473C96.9925 75.2655 97.3573 75.82 97.5445 76.4428C97.7817 77.1694 97.9021 77.9291 97.9012 78.6935ZM92.5123 78.6935C92.4969 79.362 92.5782 80.0292 92.7535 80.6744C92.8715 81.1377 93.118 81.5581 93.4643 81.8872C93.7918 82.1503 94.1992 82.2937 94.6191 82.2937C95.039 82.2937 95.4464 82.1503 95.7739 81.8872C96.1162 81.5615 96.3577 81.1441 96.4693 80.6847C96.6408 80.0327 96.7203 79.3599 96.7054 78.6858C96.7054 77.4971 96.5343 76.603 96.1922 76.0035C96.0457 75.7238 95.8237 75.491 95.5514 75.3316C95.2792 75.1721 94.9677 75.0925 94.6525 75.1017C94.2241 75.0869 93.8054 75.2315 93.4772 75.5076C93.1308 75.8317 92.8857 76.2494 92.7715 76.71C92.5884 77.3551 92.4977 78.0229 92.502 78.6935H92.5123Z" fill="#272727"/>
<path d="M104.861 74.3745V82.1775H105.787V85.3505H104.673V83.0382H99.8157V85.3505H98.7046V82.1775H99.3384C99.607 81.5249 99.8397 80.8859 100.036 80.2608C100.229 79.6399 100.39 79.0096 100.519 78.3723C100.647 77.7403 100.745 77.0945 100.811 76.4351C100.878 75.7773 100.919 75.0888 100.935 74.3797L104.861 74.3745ZM103.714 75.2198H102.01C101.982 75.8596 101.93 76.4813 101.856 77.0903C101.781 77.6992 101.681 78.2927 101.558 78.8708C101.435 79.4489 101.302 80.0141 101.122 80.5639C100.942 81.1138 100.76 81.6533 100.545 82.18H103.714V75.2198Z" fill="#272727"/>
<path d="M110.371 75.0964C109.991 75.0866 109.615 75.1875 109.291 75.3867C108.984 75.5891 108.731 75.8634 108.554 76.1857C108.356 76.5463 108.215 76.9355 108.136 77.3394C108.045 77.7892 108 78.2472 108.003 78.7062C107.988 79.3587 108.09 80.0086 108.303 80.6255C108.467 81.1094 108.761 81.5388 109.152 81.8664C109.517 82.1553 109.97 82.3087 110.435 82.3007C110.719 82.3027 111.003 82.2707 111.28 82.2056C111.529 82.1493 111.772 82.072 112.008 81.9743V82.8274C111.764 82.946 111.505 83.0324 111.238 83.0843C110.932 83.1399 110.621 83.1666 110.31 83.1639C109.649 83.1806 108.999 82.9951 108.446 82.6321C107.9 82.2484 107.478 81.7123 107.233 81.0905C106.93 80.3285 106.786 79.513 106.807 78.6934C106.803 78.1119 106.875 77.5325 107.02 76.9694C107.148 76.4603 107.368 75.9789 107.669 75.5486C107.954 75.1441 108.331 74.8138 108.77 74.5851C109.254 74.3446 109.79 74.2256 110.33 74.2382C110.994 74.2364 111.649 74.3821 112.25 74.6647L111.839 75.4638C111.615 75.3496 111.381 75.2592 111.138 75.194C110.888 75.129 110.63 75.0962 110.371 75.0964Z" fill="#272727"/>
<path d="M115.953 83.0355H114.803V75.2197H112.75V74.3667H118.018V75.2197H115.966L115.953 83.0355Z" fill="#272727"/>
<path d="M119.257 74.3745H121.567C122.485 74.3745 123.181 74.5458 123.653 74.8884C123.891 75.0686 124.08 75.3053 124.204 75.5771C124.328 75.849 124.382 76.1474 124.361 76.4454C124.368 76.7783 124.309 77.1093 124.187 77.4191C124.079 77.6871 123.902 77.9214 123.674 78.0974C123.428 78.2807 123.142 78.4007 122.84 78.4468V78.4957C123.187 78.5518 123.52 78.6805 123.815 78.8733C124.064 79.0457 124.261 79.2829 124.384 79.5593C124.517 79.8745 124.581 80.2144 124.572 80.5562C124.583 81.0101 124.476 81.459 124.261 81.8589C124.053 82.2321 123.737 82.5339 123.355 82.7247C122.902 82.9425 122.403 83.0482 121.9 83.033H119.257V74.3745ZM120.407 78.1077H121.546C122.118 78.1077 122.537 77.9767 122.796 77.712C122.936 77.5507 123.042 77.3631 123.109 77.1603C123.176 76.9574 123.202 76.7432 123.186 76.5301C123.198 76.3426 123.167 76.1549 123.095 75.9813C123.024 75.8076 122.913 75.6526 122.773 75.5281C122.411 75.2698 121.969 75.1471 121.526 75.1813H120.407V78.1077ZM120.407 78.9119V82.2109H121.769C121.988 82.2267 122.208 82.1975 122.415 82.125C122.622 82.0526 122.812 81.9384 122.973 81.7895C123.272 81.4315 123.419 80.9701 123.381 80.5048C123.393 80.1949 123.32 79.8875 123.171 79.6159C123.032 79.3793 122.823 79.1923 122.573 79.0815C122.276 78.9561 121.956 78.8957 121.633 78.9042L120.407 78.9119Z" fill="#272727"/>
<path d="M130.392 83.0356H126.24V74.3745H130.392V75.2198H127.377V78.0923H130.2V78.9376H127.377V82.18H130.382L130.392 83.0356Z" fill="#272727"/>
<path d="M137.785 83.0356H136.636V78.9247H133.3V83.0356H132.15V74.3745H133.3V78.0769H136.636V74.3745H137.785V83.0356Z" fill="#272727"/>
<path d="M145.596 83.0356H144.441V78.9247H141.105V83.0356H139.951V74.3745H141.098V78.0769H144.434V74.3745H145.596V83.0356Z" fill="#272727"/>
<path d="M147.755 83.0356V74.3745H148.902V78.0229H149.777C150.342 78.0037 150.906 78.0908 151.44 78.2798C151.855 78.4318 152.207 78.7185 152.44 79.0943C152.681 79.5179 152.799 80 152.782 80.4869C152.802 80.8372 152.743 81.1876 152.61 81.5122C152.476 81.8368 152.272 82.1274 152.012 82.3624C151.499 82.8129 150.772 83.0373 149.833 83.0356H147.755ZM148.902 82.2006H149.797C150.284 82.2338 150.766 82.0805 151.144 81.7715C151.309 81.6031 151.436 81.4013 151.516 81.1797C151.596 80.958 151.628 80.7218 151.609 80.4869C151.621 80.1688 151.554 79.8527 151.414 79.567C151.284 79.3221 151.072 79.1303 150.816 79.0249C150.489 78.8969 150.14 78.8366 149.79 78.8476H148.909L148.902 82.2006ZM154.267 83.0356V74.3745H155.415V83.0356H154.267Z" fill="#272727"/>
<path d="M157.581 74.3746H158.7V79.7059C158.7 79.8164 158.7 79.932 158.7 80.0528C158.7 80.1735 158.7 80.3097 158.7 80.4433C158.7 80.5769 158.7 80.7388 158.679 80.9058C158.659 81.0728 158.659 81.2603 158.643 81.4659H158.685L162.346 74.3746H163.776V83.0357H162.649V77.5785C162.649 77.4526 162.649 77.3216 162.649 77.188C162.649 77.0544 162.649 76.9157 162.667 76.7744C162.685 76.633 162.683 76.484 162.695 76.3299C162.708 76.1757 162.724 76.019 162.742 75.8623H162.685L158.982 83.0357H157.581V74.3746ZM162.736 71.8978C162.716 72.2487 162.612 72.5897 162.434 72.8922C162.264 73.157 162.02 73.3661 161.733 73.4934C161.385 73.6363 161.011 73.7046 160.635 73.6938C160.258 73.7057 159.883 73.641 159.531 73.5037C159.244 73.3881 159.002 73.1826 158.841 72.9179C158.664 72.6035 158.567 72.2508 158.556 71.8901H159.501C159.509 72.2272 159.624 72.5529 159.829 72.8202C160.059 73.0098 160.347 73.1135 160.645 73.1135C160.943 73.1135 161.231 73.0098 161.461 72.8202C161.663 72.555 161.778 72.2337 161.79 71.9004L162.736 71.8978Z" fill="#272727"/>
<path d="M173.312 83.0356H172.075L170.566 79.4206L168.9 83.0356H167.707L169.94 78.5085L167.982 74.3745H169.172L170.581 77.6735L172.01 74.3745H173.217L171.238 78.5753L173.312 83.0356Z" fill="#272727"/>
<path d="M180.733 78.6936C180.737 79.2783 180.677 79.8616 180.553 80.433C180.448 80.9359 180.256 81.4166 179.986 81.8538C179.733 82.2567 179.379 82.5863 178.96 82.8096C178.479 83.0405 177.953 83.1603 177.42 83.1603C176.887 83.1603 176.361 83.0405 175.88 82.8096C175.461 82.5798 175.108 82.2464 174.854 81.841C174.586 81.4009 174.395 80.9176 174.292 80.4125C174.171 79.8459 174.112 79.2678 174.115 78.6885C174.091 77.8515 174.217 77.0169 174.487 76.2245C174.69 75.627 175.078 75.1102 175.595 74.7498C176.141 74.4075 176.777 74.2366 177.42 74.259C178.105 74.2247 178.78 74.433 179.327 74.8474C179.825 75.2649 180.19 75.8197 180.376 76.4429C180.613 77.1695 180.734 77.9292 180.733 78.6936ZM175.344 78.6936C175.33 79.3621 175.411 80.0291 175.585 80.6745C175.699 81.1415 175.943 81.5664 176.288 81.9001C176.606 82.1752 177.015 82.321 177.435 82.3086C177.857 82.3228 178.268 82.18 178.59 81.9078C178.933 81.5829 179.175 81.1652 179.286 80.7054C179.457 80.0534 179.537 79.3805 179.522 78.7065C179.522 77.5177 179.351 76.6236 179.008 76.0241C178.862 75.7443 178.64 75.5113 178.368 75.3518C178.096 75.1924 177.784 75.1128 177.469 75.1223C177.04 75.1081 176.622 75.2526 176.293 75.5282C175.947 75.8519 175.703 76.2698 175.59 76.7307C175.413 77.3697 175.327 78.0305 175.334 78.6936H175.344Z" fill="#272727"/>
<path d="M187.681 83.0356H186.518V75.2635H184.653C184.608 75.7294 184.56 76.2227 184.507 76.7434C184.45 77.2572 184.391 77.7711 184.332 78.2849C184.273 78.7988 184.214 79.2613 184.155 79.6929C184.096 80.1246 184.045 80.4791 183.996 80.7643C183.924 81.2244 183.808 81.6762 183.647 82.1132C183.54 82.4218 183.343 82.6906 183.08 82.884C182.785 83.0668 182.443 83.1563 182.097 83.1409C181.965 83.1423 181.834 83.132 181.704 83.1101C181.603 83.0948 181.505 83.0654 181.412 83.0227V82.1877C181.485 82.2212 181.561 82.2454 181.64 82.2596C181.724 82.278 181.81 82.2875 181.897 82.2879C182.077 82.2978 182.255 82.2391 182.395 82.1235C182.549 81.9661 182.658 81.7699 182.71 81.5556C182.816 81.1859 182.894 80.8089 182.944 80.4277C182.987 80.1348 183.036 79.7674 183.09 79.3229C183.144 78.8784 183.198 78.3851 183.259 77.8456C183.321 77.306 183.38 76.7382 183.447 76.1473C183.513 75.5564 183.572 74.9706 183.631 74.3848H187.681V83.0356Z" fill="#272727"/>
<path d="M194.964 74.3745V82.1775H195.888V85.3505H194.777V83.0382H189.916V85.3505H188.805V82.1775H189.441C189.71 81.5249 189.942 80.8859 190.137 80.2608C190.33 79.6399 190.492 79.0096 190.622 78.3723C190.749 77.7403 190.845 77.0945 190.912 76.4351C190.981 75.7773 191.022 75.0888 191.035 74.3797L194.964 74.3745ZM193.814 75.2198H192.113C192.082 75.8596 192.031 76.4813 191.956 77.0903C191.882 77.6992 191.784 78.2927 191.661 78.8708C191.538 79.4489 191.405 80.0141 191.225 80.5639C191.045 81.1138 190.863 81.6533 190.645 82.18H193.814V75.2198Z" fill="#272727"/>
<path d="M197.258 74.3745H198.379V79.7058C198.379 79.8163 198.379 79.9319 198.379 80.0526C198.379 80.1734 198.379 80.3096 198.379 80.4432C198.379 80.5768 198.367 80.7386 198.359 80.9056C198.351 81.0727 198.336 81.2602 198.32 81.4658H198.379L202.039 74.3745H203.468V83.0356H202.342V77.5784C202.342 77.4525 202.342 77.3215 202.342 77.1879C202.342 77.0543 202.342 76.9155 202.359 76.7742C202.377 76.6329 202.377 76.4839 202.39 76.3297C202.403 76.1756 202.416 76.0189 202.436 75.8621H202.377L198.674 83.0356H197.266L197.258 74.3745Z" fill="#272727"/>
<path d="M211.26 83.0356H210.11V78.9247H206.774V83.0356H205.625V74.3745H206.774V78.0769H210.11V74.3745H211.26V83.0356Z" fill="#272727"/>
<path d="M217.57 74.3745V75.2198H214.573V83.0279H213.426V74.3745H217.57Z" fill="#272727"/>
<path d="M166.795 10.289H165.356V2.62995H163.226V1.62793H168.925V2.62995H166.788L166.795 10.289Z" fill="#525252"/>
<path d="M174.112 10.289L171.546 3.17464H171.487C171.508 3.43157 171.526 3.6885 171.539 3.89404C171.551 4.09958 171.564 4.29999 171.569 4.46442C171.574 4.62886 171.569 4.77274 171.569 4.88579V10.2813H170.214V1.62793H172.229L174.723 8.51105H174.769L177.269 1.62793H179.293V10.289H177.897V4.89349C177.897 4.77017 177.897 4.63657 177.897 4.45672C177.897 4.27687 177.915 4.09702 177.928 3.88377C177.941 3.67051 177.951 3.429 177.962 3.1695H177.931L175.365 10.2839L174.112 10.289Z" fill="#525252"/>
<path d="M123.867 7.41602C117.169 7.41602 111.736 12.3388 111.736 18.4049C111.736 24.471 117.169 29.3963 123.867 29.3963C130.564 29.3963 136.002 24.4735 136.002 18.4049C136.002 12.3362 130.572 7.41602 123.867 7.41602ZM123.867 26.1281C119.73 26.1281 116.376 22.6699 116.376 18.4049C116.376 14.1398 119.73 10.6816 123.867 10.6816C128.003 10.6816 131.36 14.1398 131.36 18.4049C131.36 22.6699 128.006 26.1281 123.867 26.1281Z" fill="#525252"/>
<path d="M13.3935 -0.664062H-0.607544L1.95863 1.59948V27.1331L-0.607544 29.3966H13.6757C17.2584 29.3953 20.6939 27.9696 23.227 25.4329C25.76 22.8963 27.1834 19.4563 27.184 15.8693V13.1459C27.1844 11.3324 26.8279 9.53672 26.135 7.86123C25.4422 6.18575 24.4264 4.66333 23.1458 3.38093C21.8652 2.09853 20.3448 1.08125 18.6715 0.387207C16.9982 -0.306838 15.2047 -0.664063 13.3935 -0.664062ZM22.801 15.1987C22.8014 16.6756 22.5111 18.1382 21.9467 19.5027C21.3824 20.8673 20.555 22.1071 19.512 23.1515C18.4689 24.1958 17.2306 25.0241 15.8677 25.5892C14.5048 26.1542 13.044 26.4449 11.5689 26.4445H6.94982V2.29319H11.5304C14.5224 2.29319 17.392 3.48212 19.509 5.59886C21.6261 7.7156 22.8175 10.5871 22.8216 13.5827L22.801 15.1987Z" fill="#525252"/>
<path d="M57.1901 29.3533H48.4344C48.3809 29.3551 48.3282 29.34 48.2836 29.3103C48.2391 29.2806 48.205 29.2376 48.186 29.1875C48.1671 29.1374 48.1642 29.0826 48.178 29.0308C48.1917 28.979 48.2212 28.9327 48.2625 28.8986L50.3025 27.1001V12.6555L40.002 29.397H36.2502L36.2759 29.3533H35.5497V8.81957L33.4557 6.97225C33.4197 6.94047 33.3942 6.89847 33.3827 6.85183C33.3711 6.8052 33.374 6.75615 33.391 6.71122C33.408 6.66629 33.4383 6.62762 33.4778 6.60035C33.5173 6.57308 33.5642 6.55852 33.6122 6.55859H42.4372C42.4882 6.55978 42.5377 6.57613 42.5793 6.60556C42.621 6.635 42.6529 6.67619 42.6711 6.72388C42.6892 6.77156 42.6928 6.82358 42.6813 6.87331C42.6699 6.92304 42.6438 6.96822 42.6066 7.00308L40.5537 8.81957V22.424L50.3051 6.55859H57.1747C57.2268 6.55867 57.2777 6.57462 57.3205 6.60431C57.3633 6.63401 57.3961 6.67606 57.4145 6.72486C57.4329 6.77366 57.436 6.82691 57.4234 6.87752C57.4108 6.92814 57.3832 6.97372 57.3441 7.00822L55.2912 8.81957V27.0924L57.3441 28.914C57.379 28.9482 57.4035 28.9916 57.4146 29.0392C57.4257 29.0868 57.423 29.1366 57.4068 29.1827C57.3907 29.2289 57.3617 29.2694 57.3233 29.2996C57.2849 29.3299 57.2387 29.3485 57.1901 29.3533Z" fill="#525252"/>
<path d="M156.375 7.88916V12.5498C156.375 12.7939 156.218 12.9301 156.013 12.7503C156.013 12.7503 155.325 11.8921 155.117 11.6403C154.727 11.1701 153.426 10.6794 153.426 10.6794H147.65V27.1229L149.687 28.9214C149.728 28.9555 149.758 29.0017 149.772 29.0536C149.785 29.1054 149.783 29.1602 149.764 29.2103C149.745 29.2604 149.71 29.3034 149.666 29.3331C149.621 29.3628 149.569 29.3779 149.515 29.3761H142.073C142.02 29.3784 141.966 29.3638 141.922 29.3343C141.877 29.3048 141.842 29.2618 141.823 29.2116C141.803 29.1613 141.8 29.1063 141.814 29.0542C141.828 29.0021 141.857 28.9557 141.899 28.9214L143.952 27.1229V10.1553L141.899 8.35677C141.855 8.32311 141.823 8.27626 141.808 8.22315C141.793 8.17005 141.796 8.11351 141.815 8.06192C141.835 8.01033 141.871 7.96642 141.917 7.93669C141.964 7.90696 142.018 7.893 142.073 7.89687L156.375 7.88916Z" fill="#525252"/>
<path d="M107.735 29.3403H103.013L97.6245 14.9728L92.7334 27.588C92.533 28.1057 92.1804 28.5504 91.7222 28.8633C91.264 29.1761 90.7218 29.3425 90.1672 29.3403L89.4872 29.3968H88.6686C87.7473 29.3968 87.1494 28.7519 86.6952 28.1122C86.1076 27.2771 85.9921 26.5038 86.2256 26.5526C87.7294 26.8635 88.8688 25.3913 88.8688 25.3913L95.1123 9.29468L93.8061 8.14363C93.7638 8.10976 93.7332 8.06335 93.7189 8.01104C93.7045 7.95874 93.7071 7.90322 93.7262 7.85246C93.7452 7.80169 93.7799 7.75827 93.8251 7.72843C93.8704 7.69858 93.9239 7.68383 93.978 7.6863H99.3362L107.735 29.3403Z" fill="#525252"/>
<path d="M75.1161 15.0316V13.8806C75.1161 10.8488 73.0632 9.95211 69.7425 10.5276C66.4219 11.1032 65.4391 12.4263 65.4391 12.4263C65.4391 12.4263 64.7975 7.43164 72.727 7.43164C80.6564 7.43164 80.1047 13.6211 80.1047 13.6211V25.1829C80.1047 25.1829 80.1997 26.19 81.7265 26.3904C82.1608 26.4274 82.5965 26.3382 82.9814 26.1335C83.1251 26.0744 82.7684 27.5851 82.363 28.0939C81.8497 28.7259 81.4391 29.2218 79.8738 29.3785C79.6871 29.398 79.4995 29.4075 79.3118 29.4068H78.5419C77.6345 29.4061 76.7644 29.0447 76.123 28.402C75.4815 27.7593 75.1212 26.8879 75.1212 25.9793V15.0316H75.1161Z" fill="#525252"/>
<path d="M75.5732 14.3276C73.2013 15.5413 70.6777 16.4313 68.0697 16.974C64.0613 17.7448 62.2701 20.9024 62.2701 23.721C62.2701 27.4259 66.4915 30.5938 70.4998 28.97C74.5082 27.3462 74.0925 25.3859 74.0925 25.3859C74.0925 25.3859 71.8317 26.8786 69.4451 26.1104C67.0586 25.3422 66.2041 24.1475 66.2041 23.1223C66.2041 22.0972 66.4171 20.0905 69.9558 19.2375C72.0411 18.7457 74.0397 17.9401 75.8837 16.8481L76.3507 15.3965L75.5732 14.3276Z" fill="#525252"/>
<path d="M216.993 38.2581C216.287 38.6306 179.707 58.6608 137.786 58.2985C96.537 57.9388 90.9479 49.0311 62.7945 45.709C28.8261 41.6881 -1.47774 46.2228 -2.10132 46.3128C-1.5111 46.1663 27.5045 36.8604 62.7945 37.0633C97.9022 37.2483 109.414 48.3733 146.177 48.4992C188.049 48.6611 216.374 38.479 216.993 38.2581Z" fill="#00872C"/>
<path d="M216.995 46.2998C216.431 46.6158 179.786 66.9158 137.786 66.5484C96.537 66.1887 90.9941 56.911 62.7945 53.9974C27.9485 50.4004 0.375035 54.2029 -0.589844 54.3365C0.390432 54.131 27.9536 48.4272 62.7945 52.0242C90.9941 54.9223 96.537 64.2103 137.786 64.57C179.789 64.9426 216.423 46.585 216.995 46.2998Z" fill="#3E5C78"/>
</g>
<defs>
<clipPath id="clip0_61_448">
<rect width="217" height="85" fill="white"/>
</clipPath>
</defs>
</svg>
