<?xml version="1.0" encoding="utf-8"?><svg width="217" height="85" fill="none" xmlns="http://www.w3.org/2000/svg" viewBox="0 0 217 85"><g clip-path="url(#dclip0_659_448)"><path d="M47.725 83.036v-8.662h5.597v8.662h-1.15V75.22h-3.3v7.808l-1.147.008zM57.371 74.374c1.027 0 1.79.206 2.292.617.501.411.747 1.051.739 1.92.008.4-.056.799-.19 1.176a2.17 2.17 0 01-.57.848c-.276.24-.602.416-.954.514-.437.124-.89.183-1.345.175h-.716v3.407H55.48v-8.657h1.891zm-.043.83h-.7v3.597h.612c.388.015.775-.05 1.137-.19.281-.115.51-.33.644-.604.15-.338.22-.706.206-1.076 0-.613-.154-1.053-.462-1.318-.308-.266-.79-.402-1.445-.409h.008zM68.193 78.694a7.975 7.975 0 01-.18 1.739 4.512 4.512 0 01-.567 1.42 2.721 2.721 0 01-1.026.957 3.555 3.555 0 01-3.08 0 2.78 2.78 0 01-1.026-.97c-.27-.44-.46-.922-.565-1.428a8.054 8.054 0 01-.174-1.724 7.068 7.068 0 01.37-2.464 2.985 2.985 0 011.108-1.474 3.236 3.236 0 011.827-.491 2.92 2.92 0 011.907.588 3.34 3.34 0 011.05 1.596 7.3 7.3 0 01.356 2.25zm-5.389 0a6.942 6.942 0 00.241 1.98c.11.466.35.89.69 1.226.319.274.728.42 1.148.408a1.71 1.71 0 001.162-.408c.343-.326.584-.743.696-1.202.171-.652.25-1.325.236-2 0-1.188-.171-2.082-.514-2.682a1.684 1.684 0 00-1.552-.901c-.43-.015-.849.13-1.178.405a2.472 2.472 0 00-.703 1.203 7.097 7.097 0 00-.236 1.97h.01zM70.013 74.374h1.119v6.069c0 .134 0 .296-.023.463-.023.167-.02.354-.036.56h.059l3.639-7.091h1.43v8.66h-1.127v-5.457-.39c0-.134 0-.273.018-.414.018-.141.018-.29.028-.444.01-.154.028-.311.049-.468h-.06l-3.674 7.174h-1.409l-.013-8.662zM82.539 76.358a2.101 2.101 0 01-.472 1.4c-.353.397-.83.66-1.353.746v.056c.561.025 1.094.253 1.499.642.357.409.54.94.513 1.483.012.459-.103.912-.331 1.31-.234.382-.581.68-.993.856a3.939 3.939 0 01-1.65.303c-.369 0-.737-.03-1.101-.09a4.77 4.77 0 01-.978-.257v-.948c.191.097.39.177.596.239.226.07.458.122.692.157.226.035.454.053.683.054.643 0 1.12-.135 1.43-.404.309-.269.463-.688.461-1.256a1.505 1.505 0 00-.53-1.285c-.352-.272-.902-.408-1.643-.408h-.77v-.853h.77c.38.01.757-.052 1.114-.183.277-.102.513-.294.67-.544a1.73 1.73 0 00.222-.92 1.287 1.287 0 00-.387-1.028 1.638 1.638 0 00-1.098-.337 2.33 2.33 0 00-.85.152 2.13 2.13 0 00-.66.398l-.569-.68a3.126 3.126 0 011.396-.65c.284-.054.573-.08.862-.078.46-.013.916.074 1.337.257.346.157.638.413.84.735.206.341.31.734.3 1.133zM84.675 74.374h2.31c.918 0 1.614.172 2.086.514a1.797 1.797 0 01.706 1.557c.007.333-.051.664-.172.974a1.613 1.613 0 01-.513.678 1.874 1.874 0 01-.835.35v.049c.348.056.679.184.973.377.25.172.448.41.572.686.132.316.195.656.188.997.01.454-.097.903-.31 1.303a2.124 2.124 0 01-.907.866 3.14 3.14 0 01-1.455.308h-2.643v-8.659zm1.147 3.734h1.142c.573 0 .99-.132 1.25-.396a1.614 1.614 0 00.39-1.182 1.234 1.234 0 00-.413-1.002 1.902 1.902 0 00-1.247-.347h-1.122v2.927zm0 .804v3.299h1.365a1.603 1.603 0 001.204-.421c.3-.359.446-.82.408-1.285.01-.31-.062-.617-.21-.89a1.296 1.296 0 00-.6-.533 2.247 2.247 0 00-.938-.178l-1.229.008zM97.901 78.694a7.969 7.969 0 01-.18 1.739 4.512 4.512 0 01-.567 1.42 2.721 2.721 0 01-1.026.957 3.555 3.555 0 01-3.08 0 2.781 2.781 0 01-1.026-.97 4.467 4.467 0 01-.562-1.428 8.055 8.055 0 01-.177-1.724 7.003 7.003 0 01.372-2.464 2.964 2.964 0 011.106-1.474 3.236 3.236 0 011.827-.491 2.92 2.92 0 011.907.588 3.34 3.34 0 011.05 1.596c.237.726.357 1.486.356 2.25zm-5.389 0a6.945 6.945 0 00.242 1.98c.117.464.364.884.71 1.213a1.844 1.844 0 002.31 0c.342-.326.584-.743.695-1.202a7.23 7.23 0 00.236-2c0-1.188-.17-2.082-.513-2.681a1.684 1.684 0 00-1.54-.902 1.733 1.733 0 00-1.175.406 2.456 2.456 0 00-.706 1.202 7.098 7.098 0 00-.269 1.984h.01zM104.861 74.374v7.803h.926v3.173h-1.114v-2.312h-4.857v2.313h-1.111v-3.174h.633c.269-.652.502-1.291.698-1.916a19.183 19.183 0 00.775-3.826c.067-.658.108-1.346.124-2.055l3.926-.005zm-1.147.846h-1.704a24.28 24.28 0 01-.154 1.87 20.73 20.73 0 01-.298 1.78 16.377 16.377 0 01-.436 1.694c-.18.55-.362 1.09-.577 1.616h3.169v-6.96zM110.371 75.096c-.38-.01-.756.091-1.08.29a2.26 2.26 0 00-.737.8c-.198.36-.339.75-.418 1.153-.091.45-.136.908-.133 1.367a5.494 5.494 0 00.3 1.92c.164.483.458.913.849 1.24a2.01 2.01 0 001.283.435c.284.002.568-.03.845-.095a4.49 4.49 0 00.728-.232v.853a3.126 3.126 0 01-.77.257 4.953 4.953 0 01-.928.08 3.247 3.247 0 01-1.864-.532 3.414 3.414 0 01-1.213-1.541 6.066 6.066 0 01-.426-2.398 6.728 6.728 0 01.213-1.724c.128-.509.348-.99.649-1.42a3.097 3.097 0 011.101-.964c.484-.24 1.02-.36 1.56-.347a4.481 4.481 0 011.92.427l-.411.799a3.588 3.588 0 00-.701-.27 3.04 3.04 0 00-.767-.098zM115.953 83.035h-1.15V75.22h-2.053v-.853h5.268v.853h-2.052l-.013 7.816zM119.257 74.374h2.31c.918 0 1.614.172 2.086.514a1.8 1.8 0 01.708 1.557c.007.333-.052.664-.174.974a1.623 1.623 0 01-.513.678 1.867 1.867 0 01-.834.35v.049c.347.056.68.184.975.377.249.173.446.41.569.686.133.316.197.655.188.997.011.454-.096.903-.311 1.303a2.124 2.124 0 01-.906.866 3.139 3.139 0 01-1.455.308h-2.643v-8.659zm1.15 3.734h1.139c.572 0 .991-.131 1.25-.396a1.613 1.613 0 00.39-1.182 1.228 1.228 0 00-.413-1.002 1.897 1.897 0 00-1.247-.347h-1.119v2.927zm0 .804v3.299h1.362a1.605 1.605 0 001.204-.421c.299-.359.446-.82.408-1.285a1.711 1.711 0 00-.21-.89 1.31 1.31 0 00-.598-.533 2.262 2.262 0 00-.94-.178l-1.226.008zM130.392 83.036h-4.152v-8.662h4.152v.846h-3.015v2.872h2.823v.846h-2.823v3.242h3.005l.01.856zM137.785 83.036h-1.149v-4.111H133.3v4.11h-1.15v-8.66h1.15v3.702h3.336v-3.703h1.149v8.662zM145.596 83.036h-1.155v-4.111h-3.336v4.11h-1.154v-8.66h1.147v3.702h3.336v-3.703h1.162v8.662zM147.755 83.036v-8.662h1.147v3.649h.875a4.524 4.524 0 011.663.257c.415.152.767.439 1 .814.241.424.359.906.342 1.393a2.351 2.351 0 01-.77 1.875c-.513.45-1.24.675-2.179.674h-2.078zm1.147-.835h.895c.487.033.969-.12 1.347-.43a1.643 1.643 0 00.465-1.284 1.926 1.926 0 00-.195-.92 1.19 1.19 0 00-.598-.542 2.591 2.591 0 00-1.026-.177h-.881l-.007 3.353zm5.365.835v-8.662h1.148v8.662h-1.148zM157.581 74.375h1.119v6.068c0 .134 0 .296-.021.463-.02.167-.02.354-.036.56h.042l3.661-7.091h1.43v8.66h-1.127V77.58v-.391c0-.134 0-.272.018-.414.018-.141.016-.29.028-.444.013-.154.029-.311.047-.468h-.057l-3.703 7.174h-1.401v-8.661zm5.155-2.477a2.21 2.21 0 01-.302.994c-.17.265-.414.474-.701.601a2.687 2.687 0 01-1.098.2 2.794 2.794 0 01-1.104-.19 1.436 1.436 0 01-.69-.585 2.233 2.233 0 01-.285-1.028h.945c.008.337.123.663.328.93a1.282 1.282 0 001.632 0c.202-.265.317-.586.329-.92l.946-.002zM173.312 83.036h-1.237l-1.509-3.615-1.666 3.615h-1.193l2.233-4.528-1.958-4.133h1.19l1.409 3.299 1.429-3.3h1.207l-1.979 4.201 2.074 4.46zM180.733 78.694a7.945 7.945 0 01-.18 1.739 4.426 4.426 0 01-.567 1.42 2.726 2.726 0 01-1.026.957 3.558 3.558 0 01-3.08 0 2.8 2.8 0 01-1.026-.969 4.462 4.462 0 01-.562-1.428 8.055 8.055 0 01-.177-1.724 7.017 7.017 0 01.372-2.464 2.956 2.956 0 011.108-1.475 3.225 3.225 0 011.825-.491 2.916 2.916 0 011.907.588c.498.418.863.973 1.049 1.596.237.727.358 1.486.357 2.25zm-5.389 0a7.043 7.043 0 00.241 1.98c.114.467.358.892.703 1.226.318.275.727.421 1.147.409a1.7 1.7 0 001.155-.401c.343-.325.585-.743.696-1.203a7.245 7.245 0 00.236-1.998c0-1.19-.171-2.083-.514-2.683a1.681 1.681 0 00-1.539-.902 1.74 1.74 0 00-1.176.406c-.346.324-.59.742-.703 1.203a7.073 7.073 0 00-.256 1.963h.01zM187.681 83.036h-1.163v-7.773h-1.865c-.045.466-.093.96-.146 1.48-.057.514-.116 1.028-.175 1.542-.059.514-.118.976-.177 1.408-.059.432-.11.786-.159 1.071-.072.46-.188.912-.349 1.35a1.61 1.61 0 01-.567.77 1.72 1.72 0 01-.983.257 2.22 2.22 0 01-.393-.03 1.09 1.09 0 01-.292-.088v-.835a.946.946 0 00.228.072c.084.018.17.027.257.028a.72.72 0 00.498-.164c.154-.158.263-.354.315-.568.106-.37.184-.747.234-1.128.043-.293.092-.66.146-1.105.054-.445.108-.938.169-1.477.062-.54.121-1.108.188-1.699.066-.59.125-1.176.184-1.762h4.05v8.65zM194.964 74.374v7.803h.924v3.173h-1.111v-2.312h-4.861v2.313h-1.111v-3.174h.636c.269-.652.501-1.291.696-1.916.193-.621.355-1.251.485-1.889.127-.632.223-1.278.29-1.937.069-.658.11-1.346.123-2.055l3.929-.005zm-1.15.846h-1.701c-.031.64-.082 1.261-.157 1.87a20.35 20.35 0 01-.295 1.78 16.377 16.377 0 01-.436 1.694c-.18.55-.362 1.09-.58 1.616h3.169v-6.96zM197.258 74.374h1.121v6.069c0 .134-.012.296-.02.463-.008.167-.023.354-.039.56h.059l3.66-7.091h1.429v8.66h-1.126v-5.457-.39c0-.134 0-.273.017-.414.018-.141.018-.29.031-.444.013-.154.026-.311.046-.468h-.059l-3.703 7.174h-1.408l-.008-8.662zM211.26 83.036h-1.15v-4.111h-3.336v4.11h-1.149v-8.66h1.149v3.702h3.336v-3.703h1.15v8.662zM217.57 74.374v.846h-2.997v7.808h-1.147v-8.654h4.144z" fill="#272727"/><path d="M166.795 10.289h-1.439V2.63h-2.13V1.628h5.699V2.63h-2.137l.007 7.659zM174.112 10.289l-2.566-7.114h-.059c.021.257.039.514.052.719.012.206.025.406.03.57.005.165 0 .309 0 .422v5.395h-1.355V1.628h2.015l2.494 6.883h.046l2.5-6.883h2.024v8.661h-1.396V4.893v-.436c0-.18.018-.36.031-.573.013-.213.023-.455.034-.714h-.031l-2.566 7.114-1.253.005zM123.867 7.416c-6.698 0-12.131 4.923-12.131 10.989 0 6.066 5.433 10.991 12.131 10.991 6.697 0 12.135-4.922 12.135-10.991s-5.43-10.989-12.135-10.989zm0 18.712c-4.137 0-7.491-3.458-7.491-7.723s3.354-7.723 7.491-7.723c4.136 0 7.493 3.458 7.493 7.723s-3.354 7.723-7.493 7.723zM13.393-.664h-14l2.566 2.263v25.534l-2.567 2.264h14.284a13.505 13.505 0 009.551-3.964 13.538 13.538 0 003.957-9.564v-2.723a13.82 13.82 0 00-4.038-9.765 13.79 13.79 0 00-9.753-4.045zm9.408 15.863a11.253 11.253 0 01-3.289 7.952 11.23 11.23 0 01-7.943 3.294h-4.62V2.293h4.581c2.992 0 5.862 1.19 7.979 3.306a11.312 11.312 0 013.313 7.984l-.021 1.616zM57.19 29.353h-8.756a.257.257 0 01-.171-.454l2.04-1.799V12.655L40.002 29.398H36.25l.026-.044h-.726V8.82l-2.094-1.848a.236.236 0 01.156-.413h8.825a.256.256 0 01.17.444L40.554 8.82v13.604l9.751-15.865h6.87a.257.257 0 01.17.45l-2.054 1.81v18.273l2.053 1.822a.257.257 0 01-.154.44zM156.375 7.89v4.66c0 .244-.157.38-.362.2 0 0-.688-.858-.896-1.11-.39-.47-1.691-.96-1.691-.96h-5.776v16.443l2.037 1.798a.26.26 0 01.085.133.262.262 0 01-.008.156.257.257 0 01-.249.166h-7.442a.254.254 0 01-.25-.164.256.256 0 01.076-.29l2.053-1.8V10.156l-2.053-1.798a.256.256 0 01.174-.46l14.302-.008zM107.735 29.34h-4.722l-5.389-14.367-4.89 12.615a2.744 2.744 0 01-2.567 1.752l-.68.057h-.818c-.922 0-1.52-.645-1.974-1.285-.587-.835-.703-1.608-.47-1.56 1.504.311 2.644-1.16 2.644-1.16l6.243-16.097-1.306-1.151a.257.257 0 01.172-.458h5.358l8.399 21.654zM75.116 15.032V13.88c0-3.032-2.053-3.929-5.373-3.353-3.321.575-4.304 1.898-4.304 1.898s-.641-4.994 7.288-4.994c7.93 0 7.378 6.19 7.378 6.19v11.56s.095 1.008 1.621 1.208c.435.037.87-.052 1.255-.256.144-.06-.213 1.451-.618 1.96-.513.632-.924 1.128-2.49 1.284-.186.02-.374.03-.561.029h-.77a3.43 3.43 0 01-3.42-3.428V15.032h-.006z" fill="#525252"/><path d="M75.573 14.328a29.8 29.8 0 01-7.503 2.646c-4.009.77-5.8 3.928-5.8 6.747 0 3.705 4.221 6.873 8.23 5.249 4.008-1.624 3.593-3.584 3.593-3.584s-2.261 1.493-4.648.724c-2.386-.768-3.24-1.962-3.24-2.988 0-1.025.212-3.032 3.75-3.884a21.17 21.17 0 005.929-2.39l.467-1.451-.778-1.07z" fill="#525252"/><path d="M216.993 38.258c-.706.373-37.286 20.403-79.207 20.04-41.249-.36-46.838-9.267-74.992-12.589-33.968-4.02-64.272.514-64.895.604.59-.147 29.605-9.453 64.895-9.25 35.108.185 46.62 11.31 83.383 11.436 41.872.162 70.197-10.02 70.816-10.24z" fill="#00872C"/><path d="M216.995 46.3c-.564.316-37.209 20.616-79.209 20.248-41.249-.36-46.792-9.637-74.992-12.55C27.949 50.4.376 54.202-.59 54.336c.98-.206 28.544-5.91 63.385-2.313 28.2 2.898 33.742 12.186 74.991 12.546 42.003.373 78.637-17.985 79.209-18.27z" fill="#3E5C78"/></g><defs><clipPath id="dclip0_659_448"><path fill="#fff" d="M0 0h217v85H0z"/></clipPath></defs></svg>