<?xml version="1.0" encoding="utf-8"?><svg width="21" height="20" fill="none" xmlns="http://www.w3.org/2000/svg" viewBox="0 0 21 20"><g clip-path="url(#eclip0_3_356)" fill="#fff"><path d="M2.543 9.938c0-2.653.01-2.968.058-4.016.05-1.083.297-2.198 1.086-2.988.797-.796 1.902-1.036 2.988-1.085 1.048-.049 1.363-.058 4.016-.058 2.654 0 2.968.01 4.016.058 1.077.048 2.204.301 2.988 1.085.797.797 1.036 1.901 1.086 2.988.048 1.048.058 1.363.058 4.016 0 2.654-.01 2.968-.058 4.016-.049 1.07-.307 2.21-1.086 2.988-.793.793-1.908 1.036-2.988 1.086-1.048.048-1.362.058-4.016.058-2.653 0-2.968-.01-4.016-.058-1.073-.049-2.206-.304-2.988-1.086-.795-.795-1.036-1.904-1.086-2.988-.048-1.048-.058-1.362-.058-4.016zm-1.79 0c0 2.7.012 3.038.06 4.098.07 1.536.497 3.062 1.608 4.173 1.115 1.114 2.637 1.537 4.172 1.608 1.06.048 1.4.06 4.098.06 2.7 0 3.038-.012 4.098-.06 1.535-.07 3.064-.5 4.172-1.608 1.114-1.114 1.538-2.64 1.609-4.173.048-1.06.06-1.399.06-4.098s-.012-3.038-.06-4.098c-.07-1.535-.499-3.062-1.609-4.172C17.846.552 16.325.13 14.79.06 13.729.012 13.39 0 10.691 0S7.653.012 6.593.06C5.057.13 3.531.558 2.421 1.668 1.309 2.78.882 4.309.813 5.84.765 6.9.753 7.24.753 9.938z"/><path d="M5.588 9.938a5.103 5.103 0 1010.207 0 5.103 5.103 0 00-10.207 0zm8.416 0a3.313 3.313 0 11-6.626 0 3.313 3.313 0 016.626 0zM6.578 4.633a1.193 1.193 0 10-2.385 0 1.193 1.193 0 002.385 0z"/></g><defs><clipPath id="eclip0_3_356"><path fill="#fff" transform="rotate(-90 10.315 9.562)" d="M0 0h19.876v19.876H0z"/></clipPath></defs></svg>